<svg width="1080" height="1080" viewBox="0 0 1080 1080" fill="none" xmlns="http://www.w3.org/2000/svg">
<rect width="1080" height="1080" rx="183" fill="#675CF5"/>
<path d="M333 428C360.184 428 387.101 433.354 412.215 443.757C437.33 454.16 460.149 469.407 479.371 488.629C498.593 507.851 513.84 530.67 524.243 555.785C534.646 580.899 540 607.816 540 635L438.74 635C438.74 621.114 436.005 607.364 430.691 594.535C425.377 581.706 417.588 570.049 407.769 560.231C397.951 550.412 386.294 542.623 373.465 537.309C360.636 531.995 346.886 529.26 333 529.26V428Z" fill="white"/>
<path d="M540 635C540 607.816 545.354 580.899 555.757 555.785C566.16 530.67 581.407 507.851 600.629 488.629C619.851 469.407 642.67 454.16 667.785 443.757C692.899 433.354 719.816 428 747 428L747 529.26C733.114 529.26 719.364 531.995 706.535 537.309C693.706 542.623 682.049 550.412 672.231 560.231C662.412 570.049 654.623 581.706 649.309 594.535C643.995 607.364 641.26 621.114 641.26 635H540Z" fill="white"/>
<path d="M646 842C618.816 842 591.899 836.646 566.785 826.243C541.67 815.84 518.851 800.593 499.629 781.371C480.407 762.149 465.16 739.33 454.757 714.215C444.354 689.101 439 662.184 439 635L540.26 635C540.26 648.886 542.995 662.636 548.309 675.465C553.623 688.294 561.412 699.951 571.231 709.769C581.049 719.588 592.706 727.377 605.535 732.691C618.364 738.005 632.114 740.74 646 740.74V842Z" fill="white"/>
<path d="M333 428C387.9 428 440.551 449.809 479.371 488.629C518.191 527.449 540 580.1 540 634.999L438.74 635C438.74 606.956 427.6 580.06 407.77 560.23C387.939 540.4 361.044 529.26 333 529.26V428ZM747 529.26C718.956 529.26 692.06 540.4 672.23 560.23C652.4 580.061 641.26 606.956 641.26 635H540C540 580.1 561.809 527.449 600.629 488.629C639.449 449.809 692.1 428 746.999 428L747 529.26Z" fill="white"/>
<path d="M539.98 238C540.363 268.5 552.645 297.668 574.24 319.264C595.891 340.914 625.154 353.202 655.738 353.524L655.746 353.539C625.159 353.859 595.893 366.148 574.24 387.801C552.299 409.743 539.972 439.502 539.972 470.532L539.963 469.078C539.584 438.573 527.302 409.4 505.703 387.801C484.007 366.104 454.666 353.81 424.012 353.538L424 353.525C454.659 353.256 484.004 340.963 505.703 319.264C527.294 297.673 539.574 268.513 539.962 238.021L539.98 238Z" fill="white"/>
</svg>
