<svg width="692" height="151" viewBox="0 0 692 151" fill="none" xmlns="http://www.w3.org/2000/svg">
<path d="M241.616 126H227.792V69.744H205.712V55.92H263.6V69.744H241.616V126ZM314.929 107.76C313.585 113.456 310.737 117.936 306.385 121.2C302.097 124.4 297.265 126.032 291.889 126.096C286.577 126.032 281.745 124.4 277.393 121.2C273.041 117.936 270.225 113.456 268.945 107.76C268.753 107.184 268.625 106.672 268.561 106.224C268.497 105.776 268.433 105.136 268.369 104.304C268.305 103.408 268.273 102.544 268.273 101.712C268.273 100.88 268.273 99.504 268.273 97.584C268.273 95.664 268.273 93.744 268.273 91.824C268.273 89.904 268.273 87.088 268.273 83.376C268.337 79.664 268.369 75.92 268.369 72.144H281.809C281.809 74.768 281.809 77.584 281.809 80.592C281.809 83.6 281.777 85.968 281.713 87.696C281.713 89.36 281.713 91.216 281.713 93.264C281.713 95.248 281.713 96.752 281.713 97.776C281.777 98.8 281.841 99.952 281.905 101.232C282.033 102.448 282.161 103.376 282.289 104.016C282.417 104.656 282.577 105.328 282.769 106.032C283.025 106.736 283.281 107.312 283.537 107.76C283.857 108.208 284.209 108.688 284.593 109.2C286.513 111.376 288.945 112.464 291.889 112.464C294.833 112.464 297.265 111.376 299.185 109.2C299.633 108.688 299.985 108.208 300.241 107.76C300.561 107.312 300.817 106.736 301.009 106.032C301.201 105.328 301.361 104.656 301.489 104.016C301.617 103.376 301.713 102.448 301.777 101.232C301.905 99.952 301.969 98.8 301.969 97.776C302.033 96.752 302.065 95.248 302.065 93.264C302.065 91.216 302.065 89.36 302.065 87.696C302.065 85.968 302.033 83.6 301.969 80.592C301.969 77.584 301.969 74.768 301.969 72.144H315.505C315.505 75.92 315.505 79.664 315.505 83.376C315.505 87.088 315.505 89.904 315.505 91.824C315.505 93.744 315.505 95.664 315.505 97.584C315.505 99.504 315.505 100.88 315.505 101.712C315.505 102.544 315.473 103.408 315.409 104.304C315.345 105.136 315.281 105.776 315.217 106.224C315.153 106.672 315.057 107.184 314.929 107.76ZM336.591 63.984C335.119 65.392 333.359 66.096 331.311 66.096C329.263 66.096 327.503 65.392 326.031 63.984C324.623 62.512 323.919 60.752 323.919 58.704C323.919 56.656 324.623 54.928 326.031 53.52C327.503 52.048 329.263 51.312 331.311 51.312C333.359 51.312 335.119 52.048 336.591 53.52C338.063 54.928 338.799 56.656 338.799 58.704C338.799 60.752 338.063 62.512 336.591 63.984ZM338.127 126.096H324.591V72.144H338.127V126.096ZM380.615 125.232C378.439 125.808 376.199 126.096 373.895 126.096C366.407 126.096 360.039 123.472 354.791 118.224C349.543 112.912 346.919 106.544 346.919 99.12V58.704H360.359V78.96H373.895V92.4H360.359V99.12C360.359 102.832 361.671 106.032 364.295 108.72C366.983 111.344 370.183 112.656 373.895 112.656C376.263 112.656 378.503 112.048 380.615 110.832V125.232ZM399.774 63.984C398.302 65.392 396.542 66.096 394.494 66.096C392.446 66.096 390.686 65.392 389.214 63.984C387.806 62.512 387.102 60.752 387.102 58.704C387.102 56.656 387.806 54.928 389.214 53.52C390.686 52.048 392.446 51.312 394.494 51.312C396.542 51.312 398.302 52.048 399.774 53.52C401.246 54.928 401.982 56.656 401.982 58.704C401.982 60.752 401.246 62.512 399.774 63.984ZM401.31 126.096H387.774V72.144H401.31V126.096ZM454.935 80.112C460.247 85.36 462.903 91.696 462.903 99.12C462.903 106.544 460.247 112.912 454.935 118.224C449.687 123.472 443.319 126.096 435.831 126.096C428.407 126.096 422.071 123.472 416.823 118.224C411.575 112.912 408.951 106.544 408.951 99.12C408.951 91.696 411.575 85.36 416.823 80.112C422.071 74.8 428.407 72.144 435.831 72.144C443.319 72.144 449.687 74.8 454.935 80.112ZM435.927 112.656C439.639 112.656 442.807 111.344 445.431 108.72C448.055 106.032 449.367 102.832 449.367 99.12C449.367 95.408 448.023 92.24 445.335 89.616C442.711 86.992 439.575 85.68 435.927 85.68C432.215 85.68 429.015 86.992 426.327 89.616C423.703 92.24 422.391 95.408 422.391 99.12C422.391 102.832 423.703 106.032 426.327 108.72C429.015 111.344 432.215 112.656 435.927 112.656ZM483.992 72.144C491.48 72.144 497.848 74.8 503.096 80.112C508.344 85.36 510.968 91.696 510.968 99.12V126.096H497.528V99.12C497.528 95.408 496.216 92.24 493.592 89.616C490.968 86.992 487.768 85.68 483.992 85.68V126.096H470.552V72.144H483.992Z" fill="black"/>
<path d="M559.843 87.984V55.92H573.763V126H559.843V101.808H540.931C534.787 101.744 529.507 99.504 525.091 95.088C520.675 90.608 518.467 85.2 518.467 78.864V55.92H532.387V78.864C532.387 81.488 533.251 83.664 534.979 85.392C536.707 87.12 538.851 87.984 541.411 87.984H559.843ZM583.787 126.096C583.787 115.792 583.787 106.736 583.787 98.928C583.787 97.52 583.755 95.44 583.691 92.688C583.627 89.872 583.595 87.824 583.595 86.544C583.595 85.2 583.659 83.408 583.787 81.168C583.915 78.928 584.171 77.136 584.555 75.792C585.003 74.448 585.547 72.88 586.187 71.088C586.891 69.296 587.819 67.664 588.971 66.192C590.123 64.656 591.467 63.152 593.003 61.68C598.507 56.56 605.035 54.032 612.587 54.096C620.203 54.096 626.763 56.752 632.267 62.064C637.771 67.376 640.747 73.808 641.195 81.36V81.456C641.259 88.432 641.291 103.312 641.291 126.096H627.371V100.464H597.707V126.096H583.787ZM627.371 86.544C627.371 86.416 627.371 85.904 627.371 85.008C627.371 84.048 627.371 83.44 627.371 83.184C627.371 82.928 627.339 82.384 627.275 81.552C627.211 80.656 627.115 80.016 626.987 79.632C626.859 79.184 626.667 78.576 626.411 77.808C626.219 76.976 625.931 76.304 625.547 75.792C625.227 75.216 624.811 74.608 624.299 73.968C623.787 73.264 623.211 72.592 622.571 71.952C619.755 69.328 616.459 67.984 612.683 67.92C608.907 67.856 605.611 69.072 602.795 71.568C602.091 72.208 601.451 72.88 600.875 73.584C600.363 74.288 599.915 74.928 599.531 75.504C599.211 76.016 598.923 76.688 598.667 77.52C598.411 78.288 598.219 78.896 598.091 79.344C597.963 79.792 597.867 80.464 597.803 81.36C597.739 82.256 597.675 82.832 597.611 83.088C597.611 83.344 597.611 83.952 597.611 84.912C597.675 85.872 597.707 86.416 597.707 86.544H627.371ZM650.781 126.096V51.984H664.221V126.096H650.781ZM674.357 126.096V51.984H687.797V126.096H674.357Z" fill="#675CF5"/>
<path d="M51.5 47.0127C58.2631 47.0127 64.9599 48.3448 71.2082 50.9329C77.4565 53.521 83.1338 57.3145 87.916 62.0967C92.6982 66.8789 96.4917 72.5562 99.0798 78.8045C101.668 85.0528 103 91.7496 103 98.5127L77.8073 98.5127C77.8073 95.058 77.1268 91.6371 75.8048 88.4453C74.4827 85.2536 72.5449 82.3535 70.1021 79.9106C67.6592 77.4678 64.7591 75.53 61.5674 74.2079C58.3756 72.8859 54.9547 72.2054 51.5 72.2054V47.0127Z" fill="#675CF5"/>
<path d="M103 98.5127C103 91.7496 104.332 85.0528 106.92 78.8045C109.508 72.5562 113.302 66.8789 118.084 62.0967C122.866 57.3145 128.544 53.521 134.792 50.9329C141.04 48.3448 147.737 47.0127 154.5 47.0127L154.5 72.2054C151.045 72.2054 147.624 72.8859 144.433 74.2079C141.241 75.53 138.341 77.4678 135.898 79.9106C133.455 82.3535 131.517 85.2536 130.195 88.4453C128.873 91.6371 128.193 95.058 128.193 98.5127H103Z" fill="#675CF5"/>
<path d="M129.5 150.013C122.737 150.013 116.04 148.681 109.792 146.092C103.544 143.504 97.8662 139.711 93.084 134.929C88.3018 130.146 84.5083 124.469 81.9202 118.221C79.3321 111.973 78 105.276 78 98.5127L103.193 98.5127C103.193 101.967 103.873 105.388 105.195 108.58C106.517 111.772 108.455 114.672 110.898 117.115C113.341 119.558 116.241 121.495 119.433 122.817C122.624 124.14 126.045 124.82 129.5 124.82V150.013Z" fill="#675CF5"/>
<path d="M51.5977 47.1807C65.2303 47.1807 78.3045 52.5966 87.9443 62.2363C97.5841 71.8761 103 84.9503 103 98.583H77.8555C77.8554 91.6192 75.0882 84.9408 70.1641 80.0166C65.2399 75.0925 58.5615 72.3262 51.5977 72.3262V47.1807ZM154.402 72.3262C147.439 72.3262 140.76 75.0925 135.836 80.0166C130.912 84.9408 128.145 91.6192 128.145 98.583H103C103 84.9504 108.416 71.8761 118.056 62.2363C127.695 52.5966 140.77 47.1807 154.402 47.1807V72.3262Z" fill="#675CF5"/>
<path d="M102.998 0C103.093 7.57403 106.14 14.8178 111.503 20.1807C116.879 25.5569 124.146 28.6054 131.74 28.6855L131.744 28.6934C124.148 28.7725 116.88 31.8221 111.503 37.1992C106.081 42.6208 103.024 49.9648 102.994 57.6289C102.964 49.9648 99.9079 42.6208 94.4863 37.1992C89.0988 31.8118 81.8131 28.7601 74.2012 28.6924L74.1953 28.6865C81.8093 28.6203 89.0974 25.5695 94.4863 20.1807C99.8475 14.8195 102.895 7.57835 102.991 0.00683594L102.998 0Z" fill="#675CF5"/>
</svg>
